<svg width="800px" height="800px" viewBox="0 0 24 24" fill="none" xmlns="http://www.w3.org/2000/svg">
<path d="M11.2798 22H7.00977C5.9489 22 4.93148 21.5785 4.18134 20.8284C3.43119 20.0782 3.00977 19.0609 3.00977 18V14.89C3.00977 11.4713 4.36781 8.19273 6.78516 5.77539C9.2025 3.35805 12.4811 2 15.8998 2H17.0098C18.0706 2 19.0881 2.42142 19.8382 3.17157C20.5883 3.92172 21.0098 4.93913 21.0098 6V11.4399" stroke="#000000" stroke-width="1.5" stroke-linecap="round" stroke-linejoin="round"/>
<path d="M3 15.06C3 9.9 8.50004 14.0599 11.73 10.8199C14.96 7.57995 10.83 2 15.98 2" stroke="#000000" stroke-width="1.5" stroke-linecap="round" stroke-linejoin="round"/>
<path d="M18.1895 15V23" stroke="#000000" stroke-width="1.5" stroke-linecap="round" stroke-linejoin="round"/>
<path d="M21.1895 20L18.1895 23" stroke="#000000" stroke-width="1.5" stroke-linecap="round" stroke-linejoin="round"/>
<path d="M15.1895 20L18.1895 23" stroke="#000000" stroke-width="1.5" stroke-linecap="round" stroke-linejoin="round"/>
</svg>